<?xml version="1.0" encoding="UTF-8"?>
<svg width="600" height="600" version="1.1" viewBox="0 0 158.75 158.75" xmlns="http://www.w3.org/2000/svg" xmlns:cc="http://creativecommons.org/ns#" xmlns:dc="http://purl.org/dc/elements/1.1/" xmlns:rdf="http://www.w3.org/1999/02/22-rdf-syntax-ns#">
<metadata>
<rdf:RDF>
<cc:Work rdf:about="">
<dc:format>image/svg+xml</dc:format>
<dc:type rdf:resource="http://purl.org/dc/dcmitype/StillImage"/>
<dc:title/>
</cc:Work>
</rdf:RDF>
</metadata>
<g transform="translate(0 -138.25)">
<path d="m11.586 217.73-0.05091-39.179 33.152-13.993c18.234-7.6962 33.541-14.146 34.016-14.332l0.86372-0.33901 33.733 14.236c18.553 7.8297 33.733 14.283 33.733 14.341 0 0.17416-67.515 28.609-67.851 28.576-0.1715-0.0166-15.392-6.3986-33.824-14.182l-33.513-14.152-0.10424 39.102-0.10424 39.102z" fill="#33691e" stroke-width=".20679"/>
<path d="m49.66 272.82c-16.464-6.8949-31.856-13.344-34.205-14.332l-4.2703-1.7957 0.15376-39.045c0.08457-21.475 0.17306-39.064 0.19664-39.087 0.02358-0.0234 4.8433 1.9702 10.71 4.4305 14.331 6.0093 44.045 18.438 51.173 21.405 3.1661 1.3177 5.8979 2.3897 6.0706 2.3823 0.32068-0.0137 0.35013 12.083 0.15688 64.436l-0.05221 14.143z" fill="#629749" stroke-width=".20846"/>
<path d="m79.423 246.14 0.10997-39.224 13.301-5.6439c27.742-11.772 53.467-22.644 53.915-22.786l0.46588-0.1482-0.0522 39.16-0.0522 39.16-31.456 13.321c-17.301 7.3264-32.555 13.786-33.899 14.354l-2.4427 1.0333z" fill="#003d00" stroke-width=".20719"/>
<g transform="matrix(0 -.71875 .71875 0 -47.182 235.41)" fill="#fff" stroke-width=".26458" aria-label="DYN">
<path d="m82.799 163.88c-2.5924-0.15652-4.9908-0.82006-7.1818-2.0036-2.2303-1.1929-3.9882-2.7215-5.253-4.5834-0.88308-1.3028-1.5247-2.7365-1.9211-4.2982-0.39767-1.5544-0.59697-3.5765-0.59697-6.0627v-6.8401s28.31 4.2333 28.31 4.2333v6.021c0 2.3523-0.18058 4.2001-0.5426 5.5466-0.3518 1.3627-0.84158 2.5006-1.4711 3.4144-1.0955 1.5713-2.5705 2.7635-4.4395 3.575-1.8992 0.82461-4.1932 1.1615-6.9043 0.99779m0.05679-3.5421c2.1901 0.16436 4.0054-0.0419 5.4621-0.61128 1.439-0.56245 2.5598-1.4749 3.3715-2.7358 0.58467-0.91174 0.98638-1.8973 1.207-2.9585 0.23179-1.0579 0.34752-2.3401 0.34752-3.8482v-3.0489s-21.816-2.956-21.816-2.956v3.3364c0 1.7101 0.14536 3.2149 0.43557 4.5121 0.28956 1.3062 0.82555 2.5257 1.6048 3.6555 0.96397 1.3992 2.2222 2.4826 3.7657 3.2512 1.5245 0.77074 3.4038 1.2369 5.6215 1.4033"/>
<path d="m96.156 186.64l-15.075-8.5023-13.235-0.0186v-3.602s12.831 0.19812 12.831 0.19812l15.48-8.2745v3.5446l-11.851 6.4884s11.851 6.7512 11.851 6.7512v3.4151"/>
<path d="m67.846 212.06v-4.457l25.623-14.469-25.623 1.6256v-3.3655l28.31-1.4248v4.9689l-22.606 13.085s22.606-2.6614 22.606-2.6614v2.9943l-28.31 3.7042"/>
</g>
<g transform="matrix(0 -.48154 -.48154 0 145.17 257.94)" fill="#fff" stroke-width=".26458" aria-label="MAP">
<path d="m17.714 226.92l1.3818 3.2842 67.422-0.2713s-42.972 7.0446-42.972 7.0446l0.82034 1.9545s48.667 6.6027 48.667 6.6027l-67.361 0.2971s1.2888 3.0632 1.2888 3.0632l78.142-0.35057-1.8609-4.4623-46.234-6.3814s40.846-6.5368 40.846-6.5368-1.8985-4.5524-1.8985-4.5524l-78.241 0.30847"/>
<path d="m6.7002 200.75l1.4762 3.5085s22.884 2.3518 22.884 2.3518l4.4879 10.693s-20.829 2.505-20.829 2.505 1.4037 3.3362 1.4037 3.3362 74.512-9.2826 74.512-9.2826-1.8256-4.3774-1.8256-4.3774l-82.109-8.7345m33.733 6.8425s40.24 4.1963 40.24 4.1963-36.6 4.4858-36.6 4.4858-3.6402-8.682-3.6402-8.682"/>
<path d="m53.068 180.62c-3.4749 0.01-6.6233 0.21295-9.4452 0.60966-2.7917 0.38556-5.1323 0.92541-7.0216 1.6195-2.3466 0.8621-3.9607 1.8776-4.8423 3.0466-0.84642 1.1688-0.89749 2.6405-0.15331 4.4151l1.381 3.2932-29.254 0.0913 1.3862 3.2946 78.376-0.251-2.7985-6.7104c-0.61905-1.4844-1.5464-2.7406-2.7822-3.7687-1.2009-1.0283-2.8092-1.9391-4.8248-2.7323-2.3917-0.93656-5.1846-1.6557-8.3787-2.1573-3.1994-0.51283-7.08-0.7629-11.642-0.75012m1.1701 3.428c2.7018-8e-3 5.1149 0.1351 7.2395 0.42868 2.1244 0.29354 3.945 0.74332 5.4621 1.3493 1.3091 0.52884 2.335 1.1361 3.0776 1.8219 0.77301 0.67451 1.3769 1.5325 1.8117 2.574l1.3596 3.2567-31.302 0.0977-1.1634-2.7769c-0.55741-1.3305-0.64171-2.4128-0.25283-3.2467 0.42402-0.83407 1.3519-1.5142 2.7837-2.0403 1.4669-0.5262 3.0864-0.89737 4.8587-1.1135 1.7674-0.22719 3.8092-0.34413 6.1253-0.35081"/>
</g>
<g transform="matrix(0 -.71591 .71591 0 185.66 63.748)" fill="#fff" stroke-width=".26458" aria-label="PM MP">
<path d="m-207.73-107.48c-1.6331-4e-3 -3.2744-0.29957-4.9239-0.88762-1.626-0.57135-3.1696-1.3763-4.6305-2.4148-1.8146-1.2899-3.4146-2.8132-4.8-4.5699-1.369-1.7568-2.6188-3.9727-3.7493-6.6478l-2.0987-4.9662-13.75-0.037s-2.1007-4.9684-2.1007-4.9684l36.877 0.10332 4.2768 10.129c0.94552 2.2392 1.5567 4.1353 1.8335 5.6883 0.29332 1.553 0.29817 2.93 0.0146 4.131-0.34032 1.4179-1.0491 2.5094-2.1263 3.2747-1.0702 0.78202-2.6775 1.1706-4.8218 1.1657m-2.3047-5.1635c1.2703 3e-3 2.2803-0.21992 3.03-0.66884 0.7497-0.44891 1.2274-1.1322 1.433-2.0498 0.17261-0.80084 0.14735-1.719-0.0758-2.7546-0.19956-1.0188-0.63105-2.3137-1.2945-3.8847l-2.0752-4.914s-14.73-0.0397-14.73-0.0397l1.7697 4.1883c0.84768 2.0062 1.7097 3.6365 2.586 4.8911 0.89282 1.2546 1.893 2.2756 3.0006 3.063 1.124 0.78745 2.1903 1.341 3.199 1.6606 1.0157 0.33633 2.068 0.50579 3.1569 0.50839"/>
<path d="m-216.63-67.739l-2.0969-4.9594s31.733 0.04813 31.733 0.04813l-25.97-10.403-1.2495-2.9563 17.247-10.255s-31.751-0.06443-31.751-0.06443-1.9609-4.6378-1.9609-4.6378l36.849 0.0785s2.8557 6.7631 2.8557 6.7631-16.302 9.9055-16.302 9.9055 24.559 9.6495 24.559 9.6495l2.9062 6.8828s-36.819-0.05188-36.819-0.05188"/>
<path d="m-271.26-98.797s-2.1039-4.9686-2.1039-4.9686 31.814 0.0696 31.814 0.0696l-26.04-10.436-1.2537-2.9617 17.288-10.259s-31.832-0.086-31.832-0.086-1.9675-4.6464-1.9675-4.6464l36.943 0.10351s2.8652 6.7756 2.8652 6.7756l-16.341 9.9099s24.625 9.6812 24.625 9.6812 2.916 6.8955 2.916 6.8955-36.913-0.07681-36.913-0.07681"/>
<path d="m-230.91-64.254c-1.6344-0.0022-3.2769-0.2965-4.9277-0.88298-1.6273-0.56982-3.1721-1.3733-4.6343-2.4104-1.8161-1.2882-3.4175-2.81-4.8042-4.5653-1.3703-1.7555-2.6213-3.9702-3.753-6.6441 0 0-2.101-4.9641-2.101-4.9641l-13.761-0.02415-2.1029-4.9663s36.904 0.06873 36.904 0.06873l4.2814 10.124c0.94653 2.2383 1.5584 4.1338 1.8357 5.6865 0.29377 1.5527 0.29882 2.9296 0.0152 4.1309-0.34035 1.4182-1.0495 2.5104-2.1275 3.2766-1.0709 0.78301-2.6793 1.1731-4.8252 1.1702m-2.3071-5.1612c1.2712 0.0018 2.282-0.22206 3.0322-0.67167 0.75017-0.4496 1.2281-1.1333 1.4338-2.0511 0.17261-0.80098 0.1472-1.7191-0.0762-2.7544-0.19985-1.0186-0.63185-2.313-1.296-3.8834 0 0-2.0775-4.9119-2.0775-4.9119l-14.741-0.02587 1.7716 4.1866c0.8486 2.0053 1.7115 3.6349 2.5887 4.8886 0.89366 1.2537 1.8947 2.2738 3.0032 3.0602 1.1249 0.78638 2.1921 1.3389 3.2016 1.6576 1.0165 0.33538 2.0696 0.50385 3.1593 0.50542"/>
</g>
</g>
</svg>
